# MagicaVoxel @ Ephtracy

# group
o 

# material
mtllib crate.mtl
usemtl palette

# normals
vn -1 0 0
vn 1 0 0
vn 0 0 1
vn 0 0 -1
vn 0 -1 0
vn 0 1 0

# texcoords
vt 0.533203 0.5
vt 0.978516 0.5

# verts
v -0.5 0 0.1
v -0.5 0 0
v -0.5 0 -0.4
v -0.5 0 -0.5
v -0.5 0.3 0
v -0.5 0.3 -0.4
v -0.5 0.5 0
v -0.5 0.5 -0.4
v -0.5 0.8 0.1
v -0.5 0.8 0
v -0.5 0.8 -0.4
v -0.5 0.8 -0.5
v -0.4 0.1 0.2
v -0.4 0.1 0.1
v -0.4 0.1 0
v -0.4 0.1 -0.4
v -0.4 0.1 -0.5
v -0.4 0.1 -0.6
v -0.4 0.3 0
v -0.4 0.3 -0.4
v -0.4 0.5 0
v -0.4 0.5 -0.4
v -0.4 0.7 0.2
v -0.4 0.7 0.1
v -0.4 0.7 0
v -0.4 0.7 -0.4
v -0.4 0.7 -0.5
v -0.4 0.7 -0.6
v -0.3 0 0
v -0.3 0 -0.4
v -0.3 0.1 0
v -0.3 0.1 -0.4
v -0.3 0.2 0.3
v -0.3 0.2 0.2
v -0.3 0.2 -0.6
v -0.3 0.2 -0.7
v -0.3 0.6 0.3
v -0.3 0.6 0.2
v -0.3 0.6 -0.6
v -0.3 0.6 -0.7
v -0.3 0.7 0
v -0.3 0.7 -0.4
v -0.3 0.8 0
v -0.3 0.8 -0.4
v 0.1 0 0
v 0.1 0 -0.4
v 0.1 0.1 0
v 0.1 0.1 -0.4
v 0.1 0.7 0
v 0.1 0.7 -0.4
v 0.1 0.8 0
v 0.1 0.8 -0.4
v -0.2 0 0
v -0.2 0 -0.4
v -0.2 0.1 0
v -0.2 0.1 -0.4
v -0.2 0.7 0
v -0.2 0.7 -0.4
v -0.2 0.8 0
v -0.2 0.8 -0.4
v 0.2 0 0
v 0.2 0 -0.4
v 0.2 0.1 0
v 0.2 0.1 -0.4
v 0.2 0.2 0.3
v 0.2 0.2 0.2
v 0.2 0.2 -0.6
v 0.2 0.2 -0.7
v 0.2 0.6 0.3
v 0.2 0.6 0.2
v 0.2 0.6 -0.6
v 0.2 0.6 -0.7
v 0.2 0.7 0
v 0.2 0.7 -0.4
v 0.2 0.8 0
v 0.2 0.8 -0.4
v 0.3 0.1 0.2
v 0.3 0.1 0.1
v 0.3 0.1 0
v 0.3 0.1 -0.4
v 0.3 0.1 -0.5
v 0.3 0.1 -0.6
v 0.3 0.3 0
v 0.3 0.3 -0.4
v 0.3 0.5 0
v 0.3 0.5 -0.4
v 0.3 0.7 0.2
v 0.3 0.7 0.1
v 0.3 0.7 0
v 0.3 0.7 -0.4
v 0.3 0.7 -0.5
v 0.3 0.7 -0.6
v 0.4 0 0.1
v 0.4 0 0
v 0.4 0 -0.4
v 0.4 0 -0.5
v 0.4 0.3 0
v 0.4 0.3 -0.4
v 0.4 0.5 0
v 0.4 0.5 -0.4
v 0.4 0.8 0.1
v 0.4 0.8 0
v 0.4 0.8 -0.4
v 0.4 0.8 -0.5
v -0.3 0.2 0.3
v -0.3 0.6 0.3
v 0.2 0.2 0.3
v 0.2 0.6 0.3
v -0.4 0.1 0.2
v -0.4 0.7 0.2
v -0.3 0.2 0.2
v -0.3 0.6 0.2
v 0.2 0.2 0.2
v 0.2 0.6 0.2
v 0.3 0.1 0.2
v 0.3 0.7 0.2
v -0.5 0 0.1
v -0.5 0.8 0.1
v -0.4 0.1 0.1
v -0.4 0.7 0.1
v 0.3 0.1 0.1
v 0.3 0.7 0.1
v 0.4 0 0.1
v 0.4 0.8 0.1
v -0.5 0 -0.4
v -0.5 0.3 -0.4
v -0.5 0.5 -0.4
v -0.5 0.8 -0.4
v -0.4 0.1 -0.4
v -0.4 0.3 -0.4
v -0.4 0.5 -0.4
v -0.4 0.7 -0.4
v -0.3 0 -0.4
v -0.3 0.1 -0.4
v -0.3 0.7 -0.4
v -0.3 0.8 -0.4
v -0.2 0 -0.4
v -0.2 0.1 -0.4
v -0.2 0.7 -0.4
v -0.2 0.8 -0.4
v 0.1 0 -0.4
v 0.1 0.1 -0.4
v 0.1 0.7 -0.4
v 0.1 0.8 -0.4
v 0.2 0 -0.4
v 0.2 0.1 -0.4
v 0.2 0.7 -0.4
v 0.2 0.8 -0.4
v 0.3 0.1 -0.4
v 0.3 0.3 -0.4
v 0.3 0.5 -0.4
v 0.3 0.7 -0.4
v 0.4 0 -0.4
v 0.4 0.3 -0.4
v 0.4 0.5 -0.4
v 0.4 0.8 -0.4
v -0.5 0 0
v -0.5 0.3 0
v -0.5 0.5 0
v -0.5 0.8 0
v -0.4 0.1 0
v -0.4 0.3 0
v -0.4 0.5 0
v -0.4 0.7 0
v -0.3 0 0
v -0.3 0.1 0
v -0.3 0.7 0
v -0.3 0.8 0
v -0.2 0 0
v -0.2 0.1 0
v -0.2 0.7 0
v -0.2 0.8 0
v 0.1 0 0
v 0.1 0.1 0
v 0.1 0.7 0
v 0.1 0.8 0
v 0.2 0 0
v 0.2 0.1 0
v 0.2 0.7 0
v 0.2 0.8 0
v 0.3 0.1 0
v 0.3 0.3 0
v 0.3 0.5 0
v 0.3 0.7 0
v 0.4 0 0
v 0.4 0.3 0
v 0.4 0.5 0
v 0.4 0.8 0
v -0.5 0 -0.5
v -0.5 0.8 -0.5
v -0.4 0.1 -0.5
v -0.4 0.7 -0.5
v 0.3 0.1 -0.5
v 0.3 0.7 -0.5
v 0.4 0 -0.5
v 0.4 0.8 -0.5
v -0.4 0.1 -0.6
v -0.4 0.7 -0.6
v -0.3 0.2 -0.6
v -0.3 0.6 -0.6
v 0.2 0.2 -0.6
v 0.2 0.6 -0.6
v 0.3 0.1 -0.6
v 0.3 0.7 -0.6
v -0.3 0.2 -0.7
v -0.3 0.6 -0.7
v 0.2 0.2 -0.7
v 0.2 0.6 -0.7
v -0.5 0 0.1
v 0.4 0 0.1
v -0.5 0 0
v -0.3 0 0
v -0.2 0 0
v 0.1 0 0
v 0.2 0 0
v 0.4 0 0
v -0.5 0 -0.4
v -0.3 0 -0.4
v -0.2 0 -0.4
v 0.1 0 -0.4
v 0.2 0 -0.4
v 0.4 0 -0.4
v -0.5 0 -0.5
v 0.4 0 -0.5
v -0.4 0.1 0.2
v 0.3 0.1 0.2
v -0.4 0.1 0.1
v 0.3 0.1 0.1
v -0.4 0.1 0
v -0.3 0.1 0
v -0.2 0.1 0
v 0.1 0.1 0
v 0.2 0.1 0
v 0.3 0.1 0
v -0.4 0.1 -0.4
v -0.3 0.1 -0.4
v -0.2 0.1 -0.4
v 0.1 0.1 -0.4
v 0.2 0.1 -0.4
v 0.3 0.1 -0.4
v -0.4 0.1 -0.5
v 0.3 0.1 -0.5
v -0.4 0.1 -0.6
v 0.3 0.1 -0.6
v -0.3 0.2 0.3
v 0.2 0.2 0.3
v -0.3 0.2 0.2
v 0.2 0.2 0.2
v -0.3 0.2 -0.6
v 0.2 0.2 -0.6
v -0.3 0.2 -0.7
v 0.2 0.2 -0.7
v -0.5 0.3 0
v -0.4 0.3 0
v 0.3 0.3 0
v 0.4 0.3 0
v -0.5 0.3 -0.4
v -0.4 0.3 -0.4
v 0.3 0.3 -0.4
v 0.4 0.3 -0.4
v -0.5 0.5 0
v -0.4 0.5 0
v 0.3 0.5 0
v 0.4 0.5 0
v -0.5 0.5 -0.4
v -0.4 0.5 -0.4
v 0.3 0.5 -0.4
v 0.4 0.5 -0.4
v -0.3 0.6 0.3
v 0.2 0.6 0.3
v -0.3 0.6 0.2
v 0.2 0.6 0.2
v -0.3 0.6 -0.6
v 0.2 0.6 -0.6
v -0.3 0.6 -0.7
v 0.2 0.6 -0.7
v -0.4 0.7 0.2
v 0.3 0.7 0.2
v -0.4 0.7 0.1
v 0.3 0.7 0.1
v -0.4 0.7 0
v -0.3 0.7 0
v -0.2 0.7 0
v 0.1 0.7 0
v 0.2 0.7 0
v 0.3 0.7 0
v -0.4 0.7 -0.4
v -0.3 0.7 -0.4
v -0.2 0.7 -0.4
v 0.1 0.7 -0.4
v 0.2 0.7 -0.4
v 0.3 0.7 -0.4
v -0.4 0.7 -0.5
v 0.3 0.7 -0.5
v -0.4 0.7 -0.6
v 0.3 0.7 -0.6
v -0.5 0.8 0.1
v 0.4 0.8 0.1
v -0.5 0.8 0
v -0.3 0.8 0
v -0.2 0.8 0
v 0.1 0.8 0
v 0.2 0.8 0
v 0.4 0.8 0
v -0.5 0.8 -0.4
v -0.3 0.8 -0.4
v -0.2 0.8 -0.4
v 0.1 0.8 -0.4
v 0.2 0.8 -0.4
v 0.4 0.8 -0.4
v -0.5 0.8 -0.5
v 0.4 0.8 -0.5

# faces
f 5/2/1 2/2/1 1/2/1
f 6/2/1 4/2/1 3/2/1
f 7/2/1 5/2/1 1/2/1
f 7/2/1 6/2/1 5/2/1
f 8/2/1 4/2/1 6/2/1
f 8/2/1 6/2/1 7/2/1
f 9/2/1 7/2/1 1/2/1
f 10/2/1 7/2/1 9/2/1
f 11/2/1 4/2/1 8/2/1
f 12/2/1 4/2/1 11/2/1
f 19/1/1 16/1/1 15/1/1
f 20/1/1 16/1/1 19/1/1
f 23/1/1 14/1/1 13/1/1
f 24/1/1 14/1/1 23/1/1
f 25/1/1 22/1/1 21/1/1
f 26/1/1 22/1/1 25/1/1
f 27/1/1 18/1/1 17/1/1
f 28/1/1 18/1/1 27/1/1
f 31/2/1 30/2/1 29/2/1
f 32/2/1 30/2/1 31/2/1
f 37/1/1 34/1/1 33/1/1
f 38/1/1 34/1/1 37/1/1
f 39/1/1 36/1/1 35/1/1
f 40/1/1 36/1/1 39/1/1
f 43/2/1 42/2/1 41/2/1
f 44/2/1 42/2/1 43/2/1
f 47/2/1 46/2/1 45/2/1
f 48/2/1 46/2/1 47/2/1
f 51/2/1 50/2/1 49/2/1
f 52/2/1 50/2/1 51/2/1
f 53/2/2 54/2/2 55/2/2
f 55/2/2 54/2/2 56/2/2
f 57/2/2 58/2/2 59/2/2
f 59/2/2 58/2/2 60/2/2
f 61/2/2 62/2/2 63/2/2
f 63/2/2 62/2/2 64/2/2
f 65/1/2 66/1/2 69/1/2
f 69/1/2 66/1/2 70/1/2
f 67/1/2 68/1/2 71/1/2
f 71/1/2 68/1/2 72/1/2
f 73/2/2 74/2/2 75/2/2
f 75/2/2 74/2/2 76/2/2
f 79/1/2 80/1/2 83/1/2
f 83/1/2 80/1/2 84/1/2
f 77/1/2 78/1/2 87/1/2
f 87/1/2 78/1/2 88/1/2
f 85/1/2 86/1/2 89/1/2
f 89/1/2 86/1/2 90/1/2
f 81/1/2 82/1/2 91/1/2
f 91/1/2 82/1/2 92/1/2
f 93/2/2 94/2/2 97/2/2
f 95/2/2 96/2/2 98/2/2
f 93/2/2 97/2/2 99/2/2
f 97/2/2 98/2/2 99/2/2
f 98/2/2 96/2/2 100/2/2
f 99/2/2 98/2/2 100/2/2
f 93/2/2 99/2/2 101/2/2
f 101/2/2 99/2/2 102/2/2
f 100/2/2 96/2/2 103/2/2
f 103/2/2 96/2/2 104/2/2
f 107/1/3 106/1/3 105/1/3
f 108/1/3 106/1/3 107/1/3
f 111/1/3 110/1/3 109/1/3
f 112/1/3 110/1/3 111/1/3
f 113/1/3 111/1/3 109/1/3
f 114/1/3 110/1/3 112/1/3
f 115/1/3 113/1/3 109/1/3
f 115/1/3 114/1/3 113/1/3
f 116/1/3 110/1/3 114/1/3
f 116/1/3 114/1/3 115/1/3
f 119/2/3 118/2/3 117/2/3
f 120/2/3 118/2/3 119/2/3
f 121/2/3 119/2/3 117/2/3
f 122/2/3 118/2/3 120/2/3
f 123/2/3 121/2/3 117/2/3
f 123/2/3 122/2/3 121/2/3
f 124/2/3 118/2/3 122/2/3
f 124/2/3 122/2/3 123/2/3
f 129/2/3 126/2/3 125/2/3
f 130/2/3 126/2/3 129/2/3
f 131/2/3 128/2/3 127/2/3
f 132/2/3 128/2/3 131/2/3
f 133/2/3 129/2/3 125/2/3
f 134/2/3 129/2/3 133/2/3
f 135/2/3 128/2/3 132/2/3
f 136/2/3 128/2/3 135/2/3
f 141/2/3 138/2/3 137/2/3
f 142/2/3 138/2/3 141/2/3
f 143/2/3 140/2/3 139/2/3
f 144/2/3 140/2/3 143/2/3
f 149/2/3 146/2/3 145/2/3
f 152/2/3 148/2/3 147/2/3
f 153/2/3 150/2/3 149/2/3
f 153/2/3 149/2/3 145/2/3
f 154/2/3 150/2/3 153/2/3
f 155/2/3 152/2/3 151/2/3
f 156/2/3 148/2/3 152/2/3
f 156/2/3 152/2/3 155/2/3
f 157/2/4 158/2/4 161/2/4
f 161/2/4 158/2/4 162/2/4
f 159/2/4 160/2/4 163/2/4
f 163/2/4 160/2/4 164/2/4
f 157/2/4 161/2/4 165/2/4
f 165/2/4 161/2/4 166/2/4
f 164/2/4 160/2/4 167/2/4
f 167/2/4 160/2/4 168/2/4
f 169/2/4 170/2/4 173/2/4
f 173/2/4 170/2/4 174/2/4
f 171/2/4 172/2/4 175/2/4
f 175/2/4 172/2/4 176/2/4
f 177/2/4 178/2/4 181/2/4
f 179/2/4 180/2/4 184/2/4
f 181/2/4 182/2/4 185/2/4
f 177/2/4 181/2/4 185/2/4
f 185/2/4 182/2/4 186/2/4
f 183/2/4 184/2/4 187/2/4
f 184/2/4 180/2/4 188/2/4
f 187/2/4 184/2/4 188/2/4
f 189/2/4 190/2/4 191/2/4
f 191/2/4 190/2/4 192/2/4
f 189/2/4 191/2/4 193/2/4
f 192/2/4 190/2/4 194/2/4
f 189/2/4 193/2/4 195/2/4
f 193/2/4 194/2/4 195/2/4
f 194/2/4 190/2/4 196/2/4
f 195/2/4 194/2/4 196/2/4
f 197/1/4 198/1/4 199/1/4
f 199/1/4 198/1/4 200/1/4
f 197/1/4 199/1/4 201/1/4
f 200/1/4 198/1/4 202/1/4
f 197/1/4 201/1/4 203/1/4
f 201/1/4 202/1/4 203/1/4
f 202/1/4 198/1/4 204/1/4
f 203/1/4 202/1/4 204/1/4
f 205/1/4 206/1/4 207/1/4
f 207/1/4 206/1/4 208/1/4
f 211/2/5 210/2/5 209/2/5
f 212/2/5 210/2/5 211/2/5
f 213/2/5 210/2/5 212/2/5
f 214/2/5 210/2/5 213/2/5
f 215/2/5 210/2/5 214/2/5
f 216/2/5 210/2/5 215/2/5
f 218/2/5 213/2/5 212/2/5
f 219/2/5 213/2/5 218/2/5
f 220/2/5 215/2/5 214/2/5
f 221/2/5 215/2/5 220/2/5
f 223/2/5 219/2/5 218/2/5
f 223/2/5 222/2/5 221/2/5
f 223/2/5 221/2/5 220/2/5
f 223/2/5 220/2/5 219/2/5
f 223/2/5 218/2/5 217/2/5
f 224/2/5 222/2/5 223/2/5
f 227/1/5 226/1/5 225/1/5
f 228/1/5 226/1/5 227/1/5
f 235/1/5 230/1/5 229/1/5
f 236/1/5 230/1/5 235/1/5
f 237/1/5 232/1/5 231/1/5
f 238/1/5 232/1/5 237/1/5
f 239/1/5 234/1/5 233/1/5
f 240/1/5 234/1/5 239/1/5
f 243/1/5 242/1/5 241/1/5
f 244/1/5 242/1/5 243/1/5
f 247/1/5 246/1/5 245/1/5
f 248/1/5 246/1/5 247/1/5
f 251/1/5 250/1/5 249/1/5
f 252/1/5 250/1/5 251/1/5
f 257/2/5 254/2/5 253/2/5
f 258/2/5 254/2/5 257/2/5
f 259/2/5 256/2/5 255/2/5
f 260/2/5 256/2/5 259/2/5
f 261/2/6 262/2/6 265/2/6
f 265/2/6 262/2/6 266/2/6
f 263/2/6 264/2/6 267/2/6
f 267/2/6 264/2/6 268/2/6
f 269/1/6 270/1/6 271/1/6
f 271/1/6 270/1/6 272/1/6
f 273/1/6 274/1/6 275/1/6
f 275/1/6 274/1/6 276/1/6
f 277/1/6 278/1/6 279/1/6
f 279/1/6 278/1/6 280/1/6
f 281/1/6 282/1/6 287/1/6
f 287/1/6 282/1/6 288/1/6
f 283/1/6 284/1/6 289/1/6
f 289/1/6 284/1/6 290/1/6
f 285/1/6 286/1/6 291/1/6
f 291/1/6 286/1/6 292/1/6
f 293/1/6 294/1/6 295/1/6
f 295/1/6 294/1/6 296/1/6
f 297/2/6 298/2/6 299/2/6
f 299/2/6 298/2/6 300/2/6
f 300/2/6 298/2/6 301/2/6
f 301/2/6 298/2/6 302/2/6
f 302/2/6 298/2/6 303/2/6
f 303/2/6 298/2/6 304/2/6
f 300/2/6 301/2/6 306/2/6
f 306/2/6 301/2/6 307/2/6
f 302/2/6 303/2/6 308/2/6
f 308/2/6 303/2/6 309/2/6
f 306/2/6 307/2/6 311/2/6
f 309/2/6 310/2/6 311/2/6
f 308/2/6 309/2/6 311/2/6
f 307/2/6 308/2/6 311/2/6
f 305/2/6 306/2/6 311/2/6
f 311/2/6 310/2/6 312/2/6
