# MagicaVoxel @ Ephtracy

# group
o 

# material
mtllib platform corner.mtl
usemtl palette

# normals
vn -1 0 0
vn 1 0 0
vn 0 0 1
vn 0 0 -1
vn 0 -1 0
vn 0 1 0

# texcoords
vt 0.306641 0.5
vt 0.830078 0.5

# verts
v -2 2.1 2
v -2 2.1 -2
v -2 4 2
v -2 4 -2
v 0.1 0 2
v 0.1 0 -2.38419e-07
v 0.1 2.1 2
v 0.1 2.1 -2.38419e-07
v 2 0 2
v 2 0 -2.38419e-07
v 2 0.1 2
v 2 0.1 0.0999999
v 2 2.1 0.0999999
v 2 2.1 -2.38419e-07
v 2 2.1 -2
v 2 2.2 -2.38419e-07
v 2 2.2 -1.9
v 2 4 2
v 2 4 -1.9
v 2 4 -2
v -2 2.1 2
v -2 4 2
v -1.9 2.2 2
v -1.9 4 2
v 0.1 0 2
v 0.1 2.1 2
v 0.1 2.2 2
v 0.2 0.1 2
v 0.2 2.1 2
v 2 0 2
v 2 0.1 2
v 2 4 2
v 0.1 0 -2.38419e-07
v 0.1 2.1 -2.38419e-07
v 2 0 -2.38419e-07
v 2 2.1 -2.38419e-07
v -2 2.1 -2
v -2 4 -2
v 2 2.1 -2
v 2 4 -2
v 0.1 0 2
v 2 0 2
v 0.1 0 -2.38419e-07
v 2 0 -2.38419e-07
v -2 2.1 2
v 0.1 2.1 2
v 0.1 2.1 -2.38419e-07
v 2 2.1 -2.38419e-07
v -2 2.1 -2
v 2 2.1 -2
v -2 4 2
v -1.9 4 2
v 2 4 2
v -1.9 4 -1.9
v 2 4 -1.9
v -2 4 -2
v 2 4 -2

# faces
f 3/2/1 2/2/1 1/2/1
f 4/2/1 2/2/1 3/2/1
f 7/2/1 6/2/1 5/2/1
f 8/2/1 6/2/1 7/2/1
f 9/2/2 10/2/2 11/2/2
f 11/2/2 10/2/2 12/2/2
f 11/1/2 12/1/2 13/1/2
f 12/2/2 10/2/2 13/2/2
f 13/2/2 10/2/2 14/2/2
f 13/1/2 14/1/2 16/1/2
f 14/2/2 15/2/2 16/2/2
f 16/2/2 15/2/2 17/2/2
f 11/1/2 13/1/2 18/1/2
f 13/1/2 16/1/2 18/1/2
f 16/1/2 17/1/2 18/1/2
f 17/2/2 15/2/2 19/2/2
f 18/1/2 17/1/2 19/1/2
f 19/2/2 15/2/2 20/2/2
f 23/2/3 22/2/3 21/2/3
f 24/2/3 22/2/3 23/2/3
f 26/2/3 23/2/3 21/2/3
f 27/1/3 24/1/3 23/1/3
f 27/2/3 23/2/3 26/2/3
f 28/2/3 26/2/3 25/2/3
f 29/1/3 27/1/3 26/1/3
f 29/2/3 26/2/3 28/2/3
f 30/2/3 28/2/3 25/2/3
f 31/1/3 29/1/3 28/1/3
f 31/2/3 28/2/3 30/2/3
f 32/1/3 24/1/3 27/1/3
f 32/1/3 29/1/3 31/1/3
f 32/1/3 27/1/3 29/1/3
f 33/2/4 34/2/4 35/2/4
f 35/2/4 34/2/4 36/2/4
f 37/2/4 38/2/4 39/2/4
f 39/2/4 38/2/4 40/2/4
f 43/2/5 42/2/5 41/2/5
f 44/2/5 42/2/5 43/2/5
f 47/2/5 46/2/5 45/2/5
f 49/2/5 47/2/5 45/2/5
f 49/2/5 48/2/5 47/2/5
f 50/2/5 48/2/5 49/2/5
f 51/2/6 52/2/6 54/2/6
f 52/1/6 53/1/6 54/1/6
f 54/1/6 53/1/6 55/1/6
f 51/2/6 54/2/6 56/2/6
f 54/2/6 55/2/6 56/2/6
f 56/2/6 55/2/6 57/2/6
