# MagicaVoxel @ Ephtracy

# group
o 

# material
mtllib platform corner.mtl
usemtl palette

# normals
vn -1 0 0
vn 1 0 0
vn 0 0 1
vn 0 0 -1
vn 0 -1 0
vn 0 1 0

# texcoords
vt 0.306641 0.5

# verts
v -2 0 2
v -2 0 -2
v -2 0.2 2
v -2 0.2 -2
v -1.9 0.1 -1.9
v -1.9 0.1 -2
v -1.9 0.2 -1.9
v -1.9 0.2 -2
v -1.8 0 -1.9
v -1.8 0 -2
v -1.8 0.1 -1.8
v -1.8 0.1 -1.9
v -1.8 0.1 -2
v -1.8 0.2 -1.8
v -1.8 0.2 -1.9
v -1.3 0 -1.8
v -1.3 0 -1.9
v -1.3 0.1 -1.7
v -1.3 0.1 -1.8
v -1.3 0.1 -1.9
v -1.3 0.2 -1.7
v -1.3 0.2 -1.8
v -1 0 -1.7
v -1 0 -1.8
v -1 0.1 -1.6
v -1 0.1 -1.7
v -1 0.1 -1.8
v -1 0.2 -1.6
v -1 0.2 -1.7
v -0.7 0 -1.6
v -0.7 0 -1.7
v -0.7 0.1 -1.5
v -0.7 0.1 -1.6
v -0.7 0.1 -1.7
v -0.7 0.2 -1.5
v -0.7 0.2 -1.6
v -0.4 0 -1.5
v -0.4 0 -1.6
v -0.4 0.1 -1.4
v -0.4 0.1 -1.5
v -0.4 0.1 -1.6
v -0.4 0.2 -1.4
v -0.4 0.2 -1.5
v -0.2 0 -1.4
v -0.2 0 -1.5
v -0.2 0.1 -1.3
v -0.2 0.1 -1.4
v -0.2 0.1 -1.5
v -0.2 0.2 -1.3
v -0.2 0.2 -1.4
v 2.38419e-07 0 -1.3
v 2.38419e-07 0 -1.4
v 2.38419e-07 0.1 -1.2
v 2.38419e-07 0.1 -1.3
v 2.38419e-07 0.1 -1.4
v 2.38419e-07 0.2 -1.2
v 2.38419e-07 0.2 -1.3
v 0.1 0 -1.2
v 0.1 0 -1.3
v 0.1 0.1 -1.1
v 0.1 0.1 -1.2
v 0.1 0.1 -1.3
v 0.1 0.2 -1.1
v 0.1 0.2 -1.2
v 0.3 0 -1.1
v 0.3 0 -1.2
v 0.3 0.1 -1
v 0.3 0.1 -1.1
v 0.3 0.1 -1.2
v 0.3 0.2 -1
v 0.3 0.2 -1.1
v 0.4 0 -1
v 0.4 0 -1.1
v 0.4 0.1 -0.9
v 0.4 0.1 -1
v 0.4 0.1 -1.1
v 0.4 0.2 -0.9
v 0.4 0.2 -1
v 0.6 0 -0.9
v 0.6 0 -1
v 0.6 0.1 -0.8
v 0.6 0.1 -0.9
v 0.6 0.1 -1
v 0.6 0.2 -0.8
v 0.6 0.2 -0.9
v 0.7 0 -0.8
v 0.7 0 -0.9
v 0.7 0.1 -0.7
v 0.7 0.1 -0.8
v 0.7 0.1 -0.9
v 0.7 0.2 -0.7
v 0.7 0.2 -0.8
v 0.8 0 -0.7
v 0.8 0 -0.8
v 0.8 0.1 -0.6
v 0.8 0.1 -0.7
v 0.8 0.1 -0.8
v 0.8 0.2 -0.6
v 0.8 0.2 -0.7
v 0.9 0 -0.6
v 0.9 0 -0.7
v 0.9 0.1 -0.5
v 0.9 0.1 -0.6
v 0.9 0.1 -0.7
v 0.9 0.2 -0.5
v 0.9 0.2 -0.6
v 1 0 -0.5
v 1 0 -0.6
v 1 0.1 -0.4
v 1 0.1 -0.5
v 1 0.1 -0.6
v 1 0.2 -0.4
v 1 0.2 -0.5
v 1.1 0 -0.4
v 1.1 0 -0.5
v 1.1 0.1 -0.2
v 1.1 0.1 -0.4
v 1.1 0.1 -0.5
v 1.1 0.2 -0.2
v 1.1 0.2 -0.4
v 1.2 0 -0.2
v 1.2 0 -0.4
v 1.2 0.1 -0.1
v 1.2 0.1 -0.2
v 1.2 0.1 -0.4
v 1.2 0.2 -0.1
v 1.2 0.2 -0.2
v 1.3 0 -2.38419e-07
v 1.3 0 -0.2
v 1.3 0.1 0.0999999
v 1.3 0.1 -2.38419e-07
v 1.3 0.1 -0.1
v 1.3 0.1 -0.2
v 1.3 0.2 0.0999999
v 1.3 0.2 -0.1
v 1.4 0 0.2
v 1.4 0 -2.38419e-07
v 1.4 0.1 0.4
v 1.4 0.1 0.2
v 1.4 0.1 0.0999999
v 1.4 0.1 -2.38419e-07
v 1.4 0.2 0.4
v 1.4 0.2 0.0999999
v 1.5 0 0.4
v 1.5 0 0.2
v 1.5 0.1 0.8
v 1.5 0.1 0.4
v 1.5 0.1 0.2
v 1.5 0.2 0.8
v 1.5 0.2 0.4
v 1.6 0 0.8
v 1.6 0 0.4
v 1.6 0.1 1.3
v 1.6 0.1 0.8
v 1.6 0.1 0.4
v 1.6 0.2 1.3
v 1.6 0.2 0.8
v 1.7 0 1.3
v 1.7 0 0.8
v 1.7 0.1 1.6
v 1.7 0.1 1.3
v 1.7 0.1 0.8
v 1.7 0.2 1.6
v 1.7 0.2 1.3
v 1.8 0 1.6
v 1.8 0 1.3
v 1.8 0.1 1.7
v 1.8 0.1 1.6
v 1.8 0.1 1.3
v 1.8 0.2 1.7
v 1.8 0.2 1.6
v 1.9 0 1.7
v 1.9 0 1.6
v 1.9 0.1 1.9
v 1.9 0.1 1.7
v 1.9 0.1 1.6
v 1.9 0.2 1.9
v 1.9 0.2 1.7
v 2 0 2
v 2 0 1.7
v 2 0.1 1.9
v 2 0.1 1.7
v 2 0.2 2
v 2 0.2 1.9
v -2 0 2
v -2 0.2 2
v 2 0 2
v 2 0.2 2
v 1.9 0.1 1.9
v 1.9 0.2 1.9
v 2 0.1 1.9
v 2 0.2 1.9
v 1.8 0.1 1.7
v 1.8 0.2 1.7
v 1.9 0 1.7
v 1.9 0.1 1.7
v 1.9 0.2 1.7
v 2 0 1.7
v 2 0.1 1.7
v 1.7 0.1 1.6
v 1.7 0.2 1.6
v 1.8 0 1.6
v 1.8 0.1 1.6
v 1.8 0.2 1.6
v 1.9 0 1.6
v 1.9 0.1 1.6
v 1.6 0.1 1.3
v 1.6 0.2 1.3
v 1.7 0 1.3
v 1.7 0.1 1.3
v 1.7 0.2 1.3
v 1.8 0 1.3
v 1.8 0.1 1.3
v 1.5 0.1 0.8
v 1.5 0.2 0.8
v 1.6 0 0.8
v 1.6 0.1 0.8
v 1.6 0.2 0.8
v 1.7 0 0.8
v 1.7 0.1 0.8
v 1.4 0.1 0.4
v 1.4 0.2 0.4
v 1.5 0 0.4
v 1.5 0.1 0.4
v 1.5 0.2 0.4
v 1.6 0 0.4
v 1.6 0.1 0.4
v 1.4 0 0.2
v 1.4 0.1 0.2
v 1.5 0 0.2
v 1.5 0.1 0.2
v 1.3 0.1 0.0999999
v 1.3 0.2 0.0999999
v 1.4 0.1 0.0999999
v 1.4 0.2 0.0999999
v 1.3 0 -2.38419e-07
v 1.3 0.1 -2.38419e-07
v 1.4 0 -2.38419e-07
v 1.4 0.1 -2.38419e-07
v 1.2 0.1 -0.1
v 1.2 0.2 -0.1
v 1.3 0.1 -0.1
v 1.3 0.2 -0.1
v 1.1 0.1 -0.2
v 1.1 0.2 -0.2
v 1.2 0 -0.2
v 1.2 0.1 -0.2
v 1.2 0.2 -0.2
v 1.3 0 -0.2
v 1.3 0.1 -0.2
v 1 0.1 -0.4
v 1 0.2 -0.4
v 1.1 0 -0.4
v 1.1 0.1 -0.4
v 1.1 0.2 -0.4
v 1.2 0 -0.4
v 1.2 0.1 -0.4
v 0.9 0.1 -0.5
v 0.9 0.2 -0.5
v 1 0 -0.5
v 1 0.1 -0.5
v 1 0.2 -0.5
v 1.1 0 -0.5
v 1.1 0.1 -0.5
v 0.8 0.1 -0.6
v 0.8 0.2 -0.6
v 0.9 0 -0.6
v 0.9 0.1 -0.6
v 0.9 0.2 -0.6
v 1 0 -0.6
v 1 0.1 -0.6
v 0.7 0.1 -0.7
v 0.7 0.2 -0.7
v 0.8 0 -0.7
v 0.8 0.1 -0.7
v 0.8 0.2 -0.7
v 0.9 0 -0.7
v 0.9 0.1 -0.7
v 0.6 0.1 -0.8
v 0.6 0.2 -0.8
v 0.7 0 -0.8
v 0.7 0.1 -0.8
v 0.7 0.2 -0.8
v 0.8 0 -0.8
v 0.8 0.1 -0.8
v 0.4 0.1 -0.9
v 0.4 0.2 -0.9
v 0.6 0 -0.9
v 0.6 0.1 -0.9
v 0.6 0.2 -0.9
v 0.7 0 -0.9
v 0.7 0.1 -0.9
v 0.3 0.1 -1
v 0.3 0.2 -1
v 0.4 0 -1
v 0.4 0.1 -1
v 0.4 0.2 -1
v 0.6 0 -1
v 0.6 0.1 -1
v 0.1 0.1 -1.1
v 0.1 0.2 -1.1
v 0.3 0 -1.1
v 0.3 0.1 -1.1
v 0.3 0.2 -1.1
v 0.4 0 -1.1
v 0.4 0.1 -1.1
v 2.38419e-07 0.1 -1.2
v 2.38419e-07 0.2 -1.2
v 0.1 0 -1.2
v 0.1 0.1 -1.2
v 0.1 0.2 -1.2
v 0.3 0 -1.2
v 0.3 0.1 -1.2
v -0.2 0.1 -1.3
v -0.2 0.2 -1.3
v 2.38419e-07 0 -1.3
v 2.38419e-07 0.1 -1.3
v 2.38419e-07 0.2 -1.3
v 0.1 0 -1.3
v 0.1 0.1 -1.3
v -0.4 0.1 -1.4
v -0.4 0.2 -1.4
v -0.2 0 -1.4
v -0.2 0.1 -1.4
v -0.2 0.2 -1.4
v 2.38419e-07 0 -1.4
v 2.38419e-07 0.1 -1.4
v -0.7 0.1 -1.5
v -0.7 0.2 -1.5
v -0.4 0 -1.5
v -0.4 0.1 -1.5
v -0.4 0.2 -1.5
v -0.2 0 -1.5
v -0.2 0.1 -1.5
v -1 0.1 -1.6
v -1 0.2 -1.6
v -0.7 0 -1.6
v -0.7 0.1 -1.6
v -0.7 0.2 -1.6
v -0.4 0 -1.6
v -0.4 0.1 -1.6
v -1.3 0.1 -1.7
v -1.3 0.2 -1.7
v -1 0 -1.7
v -1 0.1 -1.7
v -1 0.2 -1.7
v -0.7 0 -1.7
v -0.7 0.1 -1.7
v -1.8 0.1 -1.8
v -1.8 0.2 -1.8
v -1.3 0 -1.8
v -1.3 0.1 -1.8
v -1.3 0.2 -1.8
v -1 0 -1.8
v -1 0.1 -1.8
v -1.9 0.1 -1.9
v -1.9 0.2 -1.9
v -1.8 0 -1.9
v -1.8 0.1 -1.9
v -1.8 0.2 -1.9
v -1.3 0 -1.9
v -1.3 0.1 -1.9
v -2 0 -2
v -2 0.2 -2
v -1.9 0.1 -2
v -1.9 0.2 -2
v -1.8 0 -2
v -1.8 0.1 -2
v -2 0 2
v 2 0 2
v 1.9 0 1.7
v 2 0 1.7
v 1.8 0 1.6
v 1.9 0 1.6
v 1.7 0 1.3
v 1.8 0 1.3
v 1.6 0 0.8
v 1.7 0 0.8
v 1.5 0 0.4
v 1.6 0 0.4
v 1.4 0 0.2
v 1.5 0 0.2
v 1.3 0 -2.38419e-07
v 1.4 0 -2.38419e-07
v 1.2 0 -0.2
v 1.3 0 -0.2
v 1.1 0 -0.4
v 1.2 0 -0.4
v 1 0 -0.5
v 1.1 0 -0.5
v 0.9 0 -0.6
v 1 0 -0.6
v 0.8 0 -0.7
v 0.9 0 -0.7
v 0.7 0 -0.8
v 0.8 0 -0.8
v 0.6 0 -0.9
v 0.7 0 -0.9
v 0.4 0 -1
v 0.6 0 -1
v 0.3 0 -1.1
v 0.4 0 -1.1
v 0.1 0 -1.2
v 0.3 0 -1.2
v 2.38419e-07 0 -1.3
v 0.1 0 -1.3
v -0.2 0 -1.4
v 2.38419e-07 0 -1.4
v -0.4 0 -1.5
v -0.2 0 -1.5
v -0.7 0 -1.6
v -0.4 0 -1.6
v -1 0 -1.7
v -0.7 0 -1.7
v -1.3 0 -1.8
v -1 0 -1.8
v -1.8 0 -1.9
v -1.3 0 -1.9
v -2 0 -2
v -1.8 0 -2
v 1.9 0.1 1.9
v 2 0.1 1.9
v 1.8 0.1 1.7
v 1.9 0.1 1.7
v 2 0.1 1.7
v 1.7 0.1 1.6
v 1.8 0.1 1.6
v 1.9 0.1 1.6
v 1.6 0.1 1.3
v 1.7 0.1 1.3
v 1.8 0.1 1.3
v 1.5 0.1 0.8
v 1.6 0.1 0.8
v 1.7 0.1 0.8
v 1.4 0.1 0.4
v 1.5 0.1 0.4
v 1.6 0.1 0.4
v 1.4 0.1 0.2
v 1.5 0.1 0.2
v 1.3 0.1 0.0999999
v 1.4 0.1 0.0999999
v 1.3 0.1 -2.38419e-07
v 1.4 0.1 -2.38419e-07
v 1.2 0.1 -0.1
v 1.3 0.1 -0.1
v 1.1 0.1 -0.2
v 1.2 0.1 -0.2
v 1.3 0.1 -0.2
v 1 0.1 -0.4
v 1.1 0.1 -0.4
v 1.2 0.1 -0.4
v 0.9 0.1 -0.5
v 1 0.1 -0.5
v 1.1 0.1 -0.5
v 0.8 0.1 -0.6
v 0.9 0.1 -0.6
v 1 0.1 -0.6
v 0.7 0.1 -0.7
v 0.8 0.1 -0.7
v 0.9 0.1 -0.7
v 0.6 0.1 -0.8
v 0.7 0.1 -0.8
v 0.8 0.1 -0.8
v 0.4 0.1 -0.9
v 0.6 0.1 -0.9
v 0.7 0.1 -0.9
v 0.3 0.1 -1
v 0.4 0.1 -1
v 0.6 0.1 -1
v 0.1 0.1 -1.1
v 0.3 0.1 -1.1
v 0.4 0.1 -1.1
v 2.38419e-07 0.1 -1.2
v 0.1 0.1 -1.2
v 0.3 0.1 -1.2
v -0.2 0.1 -1.3
v 2.38419e-07 0.1 -1.3
v 0.1 0.1 -1.3
v -0.4 0.1 -1.4
v -0.2 0.1 -1.4
v 2.38419e-07 0.1 -1.4
v -0.7 0.1 -1.5
v -0.4 0.1 -1.5
v -0.2 0.1 -1.5
v -1 0.1 -1.6
v -0.7 0.1 -1.6
v -0.4 0.1 -1.6
v -1.3 0.1 -1.7
v -1 0.1 -1.7
v -0.7 0.1 -1.7
v -1.8 0.1 -1.8
v -1.3 0.1 -1.8
v -1 0.1 -1.8
v -1.9 0.1 -1.9
v -1.8 0.1 -1.9
v -1.3 0.1 -1.9
v -1.9 0.1 -2
v -1.8 0.1 -2
v -2 0.2 2
v 2 0.2 2
v 1.9 0.2 1.9
v 2 0.2 1.9
v 1.8 0.2 1.7
v 1.9 0.2 1.7
v 1.7 0.2 1.6
v 1.8 0.2 1.6
v 1.6 0.2 1.3
v 1.7 0.2 1.3
v 1.5 0.2 0.8
v 1.6 0.2 0.8
v 1.4 0.2 0.4
v 1.5 0.2 0.4
v 1.3 0.2 0.0999999
v 1.4 0.2 0.0999999
v 1.2 0.2 -0.1
v 1.3 0.2 -0.1
v 1.1 0.2 -0.2
v 1.2 0.2 -0.2
v 1 0.2 -0.4
v 1.1 0.2 -0.4
v 0.9 0.2 -0.5
v 1 0.2 -0.5
v 0.8 0.2 -0.6
v 0.9 0.2 -0.6
v 0.7 0.2 -0.7
v 0.8 0.2 -0.7
v 0.6 0.2 -0.8
v 0.7 0.2 -0.8
v 0.4 0.2 -0.9
v 0.6 0.2 -0.9
v 0.3 0.2 -1
v 0.4 0.2 -1
v 0.1 0.2 -1.1
v 0.3 0.2 -1.1
v 2.38419e-07 0.2 -1.2
v 0.1 0.2 -1.2
v -0.2 0.2 -1.3
v 2.38419e-07 0.2 -1.3
v -0.4 0.2 -1.4
v -0.2 0.2 -1.4
v -0.7 0.2 -1.5
v -0.4 0.2 -1.5
v -1 0.2 -1.6
v -0.7 0.2 -1.6
v -1.3 0.2 -1.7
v -1 0.2 -1.7
v -1.8 0.2 -1.8
v -1.3 0.2 -1.8
v -1.9 0.2 -1.9
v -1.8 0.2 -1.9
v -2 0.2 -2
v -1.9 0.2 -2

# faces
f 3/1/1 2/1/1 1/1/1
f 4/1/1 2/1/1 3/1/1
f 5/1/2 6/1/2 7/1/2
f 7/1/2 6/1/2 8/1/2
f 9/1/2 10/1/2 12/1/2
f 12/1/2 10/1/2 13/1/2
f 11/1/2 12/1/2 14/1/2
f 14/1/2 12/1/2 15/1/2
f 16/1/2 17/1/2 19/1/2
f 19/1/2 17/1/2 20/1/2
f 18/1/2 19/1/2 21/1/2
f 21/1/2 19/1/2 22/1/2
f 23/1/2 24/1/2 26/1/2
f 26/1/2 24/1/2 27/1/2
f 25/1/2 26/1/2 28/1/2
f 28/1/2 26/1/2 29/1/2
f 30/1/2 31/1/2 33/1/2
f 33/1/2 31/1/2 34/1/2
f 32/1/2 33/1/2 35/1/2
f 35/1/2 33/1/2 36/1/2
f 37/1/2 38/1/2 40/1/2
f 40/1/2 38/1/2 41/1/2
f 39/1/2 40/1/2 42/1/2
f 42/1/2 40/1/2 43/1/2
f 44/1/2 45/1/2 47/1/2
f 47/1/2 45/1/2 48/1/2
f 46/1/2 47/1/2 49/1/2
f 49/1/2 47/1/2 50/1/2
f 51/1/2 52/1/2 54/1/2
f 54/1/2 52/1/2 55/1/2
f 53/1/2 54/1/2 56/1/2
f 56/1/2 54/1/2 57/1/2
f 58/1/2 59/1/2 61/1/2
f 61/1/2 59/1/2 62/1/2
f 60/1/2 61/1/2 63/1/2
f 63/1/2 61/1/2 64/1/2
f 65/1/2 66/1/2 68/1/2
f 68/1/2 66/1/2 69/1/2
f 67/1/2 68/1/2 70/1/2
f 70/1/2 68/1/2 71/1/2
f 72/1/2 73/1/2 75/1/2
f 75/1/2 73/1/2 76/1/2
f 74/1/2 75/1/2 77/1/2
f 77/1/2 75/1/2 78/1/2
f 79/1/2 80/1/2 82/1/2
f 82/1/2 80/1/2 83/1/2
f 81/1/2 82/1/2 84/1/2
f 84/1/2 82/1/2 85/1/2
f 86/1/2 87/1/2 89/1/2
f 89/1/2 87/1/2 90/1/2
f 88/1/2 89/1/2 91/1/2
f 91/1/2 89/1/2 92/1/2
f 93/1/2 94/1/2 96/1/2
f 96/1/2 94/1/2 97/1/2
f 95/1/2 96/1/2 98/1/2
f 98/1/2 96/1/2 99/1/2
f 100/1/2 101/1/2 103/1/2
f 103/1/2 101/1/2 104/1/2
f 102/1/2 103/1/2 105/1/2
f 105/1/2 103/1/2 106/1/2
f 107/1/2 108/1/2 110/1/2
f 110/1/2 108/1/2 111/1/2
f 109/1/2 110/1/2 112/1/2
f 112/1/2 110/1/2 113/1/2
f 114/1/2 115/1/2 117/1/2
f 117/1/2 115/1/2 118/1/2
f 116/1/2 117/1/2 119/1/2
f 119/1/2 117/1/2 120/1/2
f 121/1/2 122/1/2 124/1/2
f 124/1/2 122/1/2 125/1/2
f 123/1/2 124/1/2 126/1/2
f 126/1/2 124/1/2 127/1/2
f 128/1/2 129/1/2 131/1/2
f 131/1/2 129/1/2 132/1/2
f 132/1/2 129/1/2 133/1/2
f 130/1/2 131/1/2 134/1/2
f 131/1/2 132/1/2 134/1/2
f 134/1/2 132/1/2 135/1/2
f 136/1/2 137/1/2 139/1/2
f 139/1/2 137/1/2 140/1/2
f 140/1/2 137/1/2 141/1/2
f 138/1/2 139/1/2 142/1/2
f 139/1/2 140/1/2 142/1/2
f 142/1/2 140/1/2 143/1/2
f 144/1/2 145/1/2 147/1/2
f 147/1/2 145/1/2 148/1/2
f 146/1/2 147/1/2 149/1/2
f 149/1/2 147/1/2 150/1/2
f 151/1/2 152/1/2 154/1/2
f 154/1/2 152/1/2 155/1/2
f 153/1/2 154/1/2 156/1/2
f 156/1/2 154/1/2 157/1/2
f 158/1/2 159/1/2 161/1/2
f 161/1/2 159/1/2 162/1/2
f 160/1/2 161/1/2 163/1/2
f 163/1/2 161/1/2 164/1/2
f 165/1/2 166/1/2 168/1/2
f 168/1/2 166/1/2 169/1/2
f 167/1/2 168/1/2 170/1/2
f 170/1/2 168/1/2 171/1/2
f 172/1/2 173/1/2 175/1/2
f 175/1/2 173/1/2 176/1/2
f 174/1/2 175/1/2 177/1/2
f 177/1/2 175/1/2 178/1/2
f 179/1/2 180/1/2 181/1/2
f 181/1/2 180/1/2 182/1/2
f 179/1/2 181/1/2 183/1/2
f 183/1/2 181/1/2 184/1/2
f 187/1/3 186/1/3 185/1/3
f 188/1/3 186/1/3 187/1/3
f 189/1/4 190/1/4 191/1/4
f 191/1/4 190/1/4 192/1/4
f 193/1/4 194/1/4 196/1/4
f 196/1/4 194/1/4 197/1/4
f 195/1/4 196/1/4 198/1/4
f 198/1/4 196/1/4 199/1/4
f 200/1/4 201/1/4 203/1/4
f 203/1/4 201/1/4 204/1/4
f 202/1/4 203/1/4 205/1/4
f 205/1/4 203/1/4 206/1/4
f 207/1/4 208/1/4 210/1/4
f 210/1/4 208/1/4 211/1/4
f 209/1/4 210/1/4 212/1/4
f 212/1/4 210/1/4 213/1/4
f 214/1/4 215/1/4 217/1/4
f 217/1/4 215/1/4 218/1/4
f 216/1/4 217/1/4 219/1/4
f 219/1/4 217/1/4 220/1/4
f 221/1/4 222/1/4 224/1/4
f 224/1/4 222/1/4 225/1/4
f 223/1/4 224/1/4 226/1/4
f 226/1/4 224/1/4 227/1/4
f 228/1/4 229/1/4 230/1/4
f 230/1/4 229/1/4 231/1/4
f 232/1/4 233/1/4 234/1/4
f 234/1/4 233/1/4 235/1/4
f 236/1/4 237/1/4 238/1/4
f 238/1/4 237/1/4 239/1/4
f 240/1/4 241/1/4 242/1/4
f 242/1/4 241/1/4 243/1/4
f 244/1/4 245/1/4 247/1/4
f 247/1/4 245/1/4 248/1/4
f 246/1/4 247/1/4 249/1/4
f 249/1/4 247/1/4 250/1/4
f 251/1/4 252/1/4 254/1/4
f 254/1/4 252/1/4 255/1/4
f 253/1/4 254/1/4 256/1/4
f 256/1/4 254/1/4 257/1/4
f 258/1/4 259/1/4 261/1/4
f 261/1/4 259/1/4 262/1/4
f 260/1/4 261/1/4 263/1/4
f 263/1/4 261/1/4 264/1/4
f 265/1/4 266/1/4 268/1/4
f 268/1/4 266/1/4 269/1/4
f 267/1/4 268/1/4 270/1/4
f 270/1/4 268/1/4 271/1/4
f 272/1/4 273/1/4 275/1/4
f 275/1/4 273/1/4 276/1/4
f 274/1/4 275/1/4 277/1/4
f 277/1/4 275/1/4 278/1/4
f 279/1/4 280/1/4 282/1/4
f 282/1/4 280/1/4 283/1/4
f 281/1/4 282/1/4 284/1/4
f 284/1/4 282/1/4 285/1/4
f 286/1/4 287/1/4 289/1/4
f 289/1/4 287/1/4 290/1/4
f 288/1/4 289/1/4 291/1/4
f 291/1/4 289/1/4 292/1/4
f 293/1/4 294/1/4 296/1/4
f 296/1/4 294/1/4 297/1/4
f 295/1/4 296/1/4 298/1/4
f 298/1/4 296/1/4 299/1/4
f 300/1/4 301/1/4 303/1/4
f 303/1/4 301/1/4 304/1/4
f 302/1/4 303/1/4 305/1/4
f 305/1/4 303/1/4 306/1/4
f 307/1/4 308/1/4 310/1/4
f 310/1/4 308/1/4 311/1/4
f 309/1/4 310/1/4 312/1/4
f 312/1/4 310/1/4 313/1/4
f 314/1/4 315/1/4 317/1/4
f 317/1/4 315/1/4 318/1/4
f 316/1/4 317/1/4 319/1/4
f 319/1/4 317/1/4 320/1/4
f 321/1/4 322/1/4 324/1/4
f 324/1/4 322/1/4 325/1/4
f 323/1/4 324/1/4 326/1/4
f 326/1/4 324/1/4 327/1/4
f 328/1/4 329/1/4 331/1/4
f 331/1/4 329/1/4 332/1/4
f 330/1/4 331/1/4 333/1/4
f 333/1/4 331/1/4 334/1/4
f 335/1/4 336/1/4 338/1/4
f 338/1/4 336/1/4 339/1/4
f 337/1/4 338/1/4 340/1/4
f 340/1/4 338/1/4 341/1/4
f 342/1/4 343/1/4 345/1/4
f 345/1/4 343/1/4 346/1/4
f 344/1/4 345/1/4 347/1/4
f 347/1/4 345/1/4 348/1/4
f 349/1/4 350/1/4 352/1/4
f 352/1/4 350/1/4 353/1/4
f 351/1/4 352/1/4 354/1/4
f 354/1/4 352/1/4 355/1/4
f 356/1/4 357/1/4 359/1/4
f 359/1/4 357/1/4 360/1/4
f 358/1/4 359/1/4 361/1/4
f 361/1/4 359/1/4 362/1/4
f 363/1/4 364/1/4 365/1/4
f 365/1/4 364/1/4 366/1/4
f 363/1/4 365/1/4 367/1/4
f 367/1/4 365/1/4 368/1/4
f 371/1/5 370/1/5 369/1/5
f 372/1/5 370/1/5 371/1/5
f 373/1/5 371/1/5 369/1/5
f 374/1/5 371/1/5 373/1/5
f 375/1/5 373/1/5 369/1/5
f 376/1/5 373/1/5 375/1/5
f 377/1/5 375/1/5 369/1/5
f 378/1/5 375/1/5 377/1/5
f 379/1/5 377/1/5 369/1/5
f 380/1/5 377/1/5 379/1/5
f 381/1/5 379/1/5 369/1/5
f 382/1/5 379/1/5 381/1/5
f 383/1/5 381/1/5 369/1/5
f 384/1/5 381/1/5 383/1/5
f 385/1/5 383/1/5 369/1/5
f 386/1/5 383/1/5 385/1/5
f 387/1/5 385/1/5 369/1/5
f 388/1/5 385/1/5 387/1/5
f 389/1/5 387/1/5 369/1/5
f 390/1/5 387/1/5 389/1/5
f 391/1/5 389/1/5 369/1/5
f 392/1/5 389/1/5 391/1/5
f 393/1/5 391/1/5 369/1/5
f 394/1/5 391/1/5 393/1/5
f 395/1/5 393/1/5 369/1/5
f 396/1/5 393/1/5 395/1/5
f 397/1/5 395/1/5 369/1/5
f 398/1/5 395/1/5 397/1/5
f 399/1/5 397/1/5 369/1/5
f 400/1/5 397/1/5 399/1/5
f 401/1/5 399/1/5 369/1/5
f 402/1/5 399/1/5 401/1/5
f 403/1/5 401/1/5 369/1/5
f 404/1/5 401/1/5 403/1/5
f 405/1/5 403/1/5 369/1/5
f 406/1/5 403/1/5 405/1/5
f 407/1/5 405/1/5 369/1/5
f 408/1/5 405/1/5 407/1/5
f 409/1/5 407/1/5 369/1/5
f 410/1/5 407/1/5 409/1/5
f 411/1/5 409/1/5 369/1/5
f 412/1/5 409/1/5 411/1/5
f 413/1/5 411/1/5 369/1/5
f 414/1/5 411/1/5 413/1/5
f 415/1/5 413/1/5 369/1/5
f 416/1/5 413/1/5 415/1/5
f 417/1/5 415/1/5 369/1/5
f 418/1/5 415/1/5 417/1/5
f 419/1/5 417/1/5 369/1/5
f 420/1/5 417/1/5 419/1/5
f 421/1/6 422/1/6 424/1/6
f 424/1/6 422/1/6 425/1/6
f 423/1/6 424/1/6 427/1/6
f 427/1/6 424/1/6 428/1/6
f 426/1/6 427/1/6 430/1/6
f 430/1/6 427/1/6 431/1/6
f 429/1/6 430/1/6 433/1/6
f 433/1/6 430/1/6 434/1/6
f 432/1/6 433/1/6 436/1/6
f 436/1/6 433/1/6 437/1/6
f 435/1/6 436/1/6 438/1/6
f 438/1/6 436/1/6 439/1/6
f 440/1/6 441/1/6 442/1/6
f 442/1/6 441/1/6 443/1/6
f 444/1/6 445/1/6 447/1/6
f 447/1/6 445/1/6 448/1/6
f 446/1/6 447/1/6 450/1/6
f 450/1/6 447/1/6 451/1/6
f 449/1/6 450/1/6 453/1/6
f 453/1/6 450/1/6 454/1/6
f 452/1/6 453/1/6 456/1/6
f 456/1/6 453/1/6 457/1/6
f 455/1/6 456/1/6 459/1/6
f 459/1/6 456/1/6 460/1/6
f 458/1/6 459/1/6 462/1/6
f 462/1/6 459/1/6 463/1/6
f 461/1/6 462/1/6 465/1/6
f 465/1/6 462/1/6 466/1/6
f 464/1/6 465/1/6 468/1/6
f 468/1/6 465/1/6 469/1/6
f 467/1/6 468/1/6 471/1/6
f 471/1/6 468/1/6 472/1/6
f 470/1/6 471/1/6 474/1/6
f 474/1/6 471/1/6 475/1/6
f 473/1/6 474/1/6 477/1/6
f 477/1/6 474/1/6 478/1/6
f 476/1/6 477/1/6 480/1/6
f 480/1/6 477/1/6 481/1/6
f 479/1/6 480/1/6 483/1/6
f 483/1/6 480/1/6 484/1/6
f 482/1/6 483/1/6 486/1/6
f 486/1/6 483/1/6 487/1/6
f 485/1/6 486/1/6 489/1/6
f 489/1/6 486/1/6 490/1/6
f 488/1/6 489/1/6 492/1/6
f 492/1/6 489/1/6 493/1/6
f 491/1/6 492/1/6 495/1/6
f 495/1/6 492/1/6 496/1/6
f 494/1/6 495/1/6 497/1/6
f 497/1/6 495/1/6 498/1/6
f 499/1/6 500/1/6 501/1/6
f 501/1/6 500/1/6 502/1/6
f 499/1/6 501/1/6 503/1/6
f 503/1/6 501/1/6 504/1/6
f 499/1/6 503/1/6 505/1/6
f 505/1/6 503/1/6 506/1/6
f 499/1/6 505/1/6 507/1/6
f 507/1/6 505/1/6 508/1/6
f 499/1/6 507/1/6 509/1/6
f 509/1/6 507/1/6 510/1/6
f 499/1/6 509/1/6 511/1/6
f 511/1/6 509/1/6 512/1/6
f 499/1/6 511/1/6 513/1/6
f 513/1/6 511/1/6 514/1/6
f 499/1/6 513/1/6 515/1/6
f 515/1/6 513/1/6 516/1/6
f 499/1/6 515/1/6 517/1/6
f 517/1/6 515/1/6 518/1/6
f 499/1/6 517/1/6 519/1/6
f 519/1/6 517/1/6 520/1/6
f 499/1/6 519/1/6 521/1/6
f 521/1/6 519/1/6 522/1/6
f 499/1/6 521/1/6 523/1/6
f 523/1/6 521/1/6 524/1/6
f 499/1/6 523/1/6 525/1/6
f 525/1/6 523/1/6 526/1/6
f 499/1/6 525/1/6 527/1/6
f 527/1/6 525/1/6 528/1/6
f 499/1/6 527/1/6 529/1/6
f 529/1/6 527/1/6 530/1/6
f 499/1/6 529/1/6 531/1/6
f 531/1/6 529/1/6 532/1/6
f 499/1/6 531/1/6 533/1/6
f 533/1/6 531/1/6 534/1/6
f 499/1/6 533/1/6 535/1/6
f 535/1/6 533/1/6 536/1/6
f 499/1/6 535/1/6 537/1/6
f 537/1/6 535/1/6 538/1/6
f 499/1/6 537/1/6 539/1/6
f 539/1/6 537/1/6 540/1/6
f 499/1/6 539/1/6 541/1/6
f 541/1/6 539/1/6 542/1/6
f 499/1/6 541/1/6 543/1/6
f 543/1/6 541/1/6 544/1/6
f 499/1/6 543/1/6 545/1/6
f 545/1/6 543/1/6 546/1/6
f 499/1/6 545/1/6 547/1/6
f 547/1/6 545/1/6 548/1/6
f 499/1/6 547/1/6 549/1/6
f 549/1/6 547/1/6 550/1/6
f 499/1/6 549/1/6 551/1/6
f 551/1/6 549/1/6 552/1/6
