# MagicaVoxel @ Ephtracy

# group
o 

# material
mtllib Platform Edge.mtl
usemtl palette

# normals
vn -1 0 0
vn 1 0 0
vn 0 0 1
vn 0 0 -1
vn 0 -1 0
vn 0 1 0

# texcoords
vt 0.306641 0.5
vt 0.830078 0.5

# verts
v -2 0 2
v -2 0 0.0999999
v -2 0.1 2
v -2 0.1 0.2
v -2 2.1 0.0999999
v -2 2.1 -2
v -2 2.2 0.2
v -2 2.2 -1.9
v -2 4 2
v -2 4 -1.9
v -2 4 -2
v 2 0 2
v 2 0 0.0999999
v 2 0.1 2
v 2 0.1 0.2
v 2 2.1 0.0999999
v 2 2.1 -2
v 2 2.2 0.2
v 2 2.2 -1.9
v 2 4 2
v 2 4 -1.9
v 2 4 -2
v -2 0 2
v -2 0.1 2
v -2 4 2
v 2 0 2
v 2 0.1 2
v 2 4 2
v -2 0 0.0999999
v -2 2.1 0.0999999
v 2 0 0.0999999
v 2 2.1 0.0999999
v -2 2.1 -2
v -2 4 -2
v 2 2.1 -2
v 2 4 -2
v -2 0 2
v 2 0 2
v -2 0 0.0999999
v 2 0 0.0999999
v -2 2.1 0.0999999
v 2 2.1 0.0999999
v -2 2.1 -2
v 2 2.1 -2
v -2 4 2
v 2 4 2
v -2 4 -1.9
v 2 4 -1.9
v -2 4 -2
v 2 4 -2

# faces
f 3/2/1 2/2/1 1/2/1
f 4/2/1 2/2/1 3/2/1
f 5/2/1 2/2/1 4/2/1
f 7/1/1 4/1/1 3/1/1
f 7/2/1 6/2/1 5/2/1
f 7/2/1 5/2/1 4/2/1
f 8/2/1 6/2/1 7/2/1
f 9/1/1 7/1/1 3/1/1
f 9/1/1 8/1/1 7/1/1
f 10/2/1 6/2/1 8/2/1
f 10/1/1 8/1/1 9/1/1
f 11/2/1 6/2/1 10/2/1
f 12/2/2 13/2/2 14/2/2
f 14/2/2 13/2/2 15/2/2
f 15/2/2 13/2/2 16/2/2
f 14/1/2 15/1/2 18/1/2
f 16/2/2 17/2/2 18/2/2
f 15/2/2 16/2/2 18/2/2
f 18/2/2 17/2/2 19/2/2
f 14/1/2 18/1/2 20/1/2
f 18/1/2 19/1/2 20/1/2
f 19/2/2 17/2/2 21/2/2
f 20/1/2 19/1/2 21/1/2
f 21/2/2 17/2/2 22/2/2
f 26/2/3 24/2/3 23/2/3
f 27/1/3 25/1/3 24/1/3
f 27/2/3 24/2/3 26/2/3
f 28/1/3 25/1/3 27/1/3
f 29/2/4 30/2/4 31/2/4
f 31/2/4 30/2/4 32/2/4
f 33/2/4 34/2/4 35/2/4
f 35/2/4 34/2/4 36/2/4
f 39/2/5 38/2/5 37/2/5
f 40/2/5 38/2/5 39/2/5
f 43/2/5 42/2/5 41/2/5
f 44/2/5 42/2/5 43/2/5
f 45/1/6 46/1/6 47/1/6
f 47/1/6 46/1/6 48/1/6
f 47/2/6 48/2/6 49/2/6
f 49/2/6 48/2/6 50/2/6
